<svg width="12" height="8" viewBox="0 0 12 8" fill="none" xmlns="http://www.w3.org/2000/svg">
<path d="M11.9267 3.82325L8.17675 0.0732481C8.07909 -0.024416 7.92088 -0.024416 7.82324 0.0732481C7.72558 0.170912 7.72558 0.329115 7.82324 0.426756L11.1465 3.75001L0.250008 3.75001C0.11182 3.75001 0 3.86183 0 4.00001C0 4.1382 0.11182 4.25002 0.250008 4.25002L11.1465 4.25002L7.82324 7.57325C7.72558 7.67091 7.72558 7.82912 7.82324 7.92676C7.87206 7.97558 7.93605 8 8.00001 8C8.06397 8 8.12793 7.97558 8.17678 7.92676L11.9268 4.17676C12.0244 4.07912 12.0244 3.92091 11.9267 3.82325Z" fill="#F89824"/>
</svg>
