<svg width="60" height="60" viewBox="0 0 60 60" fill="none" xmlns="http://www.w3.org/2000/svg">
<path d="M39.375 1.875C29.3775 1.875 18.75 5.16 18.75 11.25V18.75C18.75 19.785 19.59 20.625 20.625 20.625C21.66 20.625 22.5 19.785 22.5 18.75V16.7963C26.4787 19.305 33.0487 20.625 39.375 20.625C45.7013 20.625 52.2713 19.305 56.25 16.7963V18.75C56.25 20.5837 51.6375 23.5087 42.9675 24.2325C41.94 24.315 41.1712 25.2262 41.2575 26.2575C41.3362 27.2362 42.1575 27.975 43.1212 27.975C43.1775 27.975 43.2262 27.9713 43.2825 27.9675C48.165 27.5588 53.0287 26.295 56.25 24.2438V26.25C56.25 27.8512 52.8525 30.1538 46.5488 31.2675C45.5325 31.4475 44.85 32.4225 45.03 33.4387C45.1913 34.3462 45.9825 34.9875 46.8712 34.9875C46.98 34.9875 47.0925 34.98 47.2012 34.9575C51.015 34.2862 54.0675 33.1875 56.25 31.7925V33.75C56.25 35.3512 52.8525 37.6538 46.5488 38.7675C45.5325 38.9475 44.85 39.9225 45.03 40.9387C45.1913 41.8462 45.9825 42.4875 46.8712 42.4875C46.98 42.4875 47.0925 42.48 47.2012 42.4575C51.015 41.7862 54.0675 40.6837 56.25 39.2925V41.25C56.25 42.8512 52.8525 45.1538 46.5488 46.2675C45.5325 46.4475 44.85 47.4225 45.03 48.4387C45.1913 49.3462 45.9825 49.9875 46.8712 49.9875C46.98 49.9875 47.0925 49.98 47.2012 49.9575C51.015 49.2862 54.0675 48.1837 56.25 46.7925V48.75C56.25 50.5837 51.6375 53.5087 42.9675 54.2325C41.94 54.315 41.1712 55.2262 41.2575 56.2575C41.3362 57.2362 42.1575 57.975 43.1212 57.975C43.1775 57.975 43.2262 57.9713 43.2825 57.9675C51.6037 57.27 60 54.1537 60 48.75V11.25C60 5.16 49.3725 1.875 39.375 1.875ZM39.375 16.875C29.0738 16.875 22.5 13.5413 22.5 11.25C22.5 8.95875 29.0738 5.625 39.375 5.625C49.6762 5.625 56.25 8.95875 56.25 11.25C56.25 13.5413 49.6762 16.875 39.375 16.875Z" fill="url(#paint0_linear)"/>
<path d="M20.625 24.375C10.6275 24.375 0 27.66 0 33.75V48.75C0 54.84 10.6275 58.125 20.625 58.125C30.6225 58.125 41.25 54.84 41.25 48.75V33.75C41.25 27.66 30.6225 24.375 20.625 24.375ZM37.5 48.75C37.5 51.0413 30.9262 54.375 20.625 54.375C10.3238 54.375 3.75 51.0413 3.75 48.75V46.7963C7.72875 49.305 14.2987 50.625 20.625 50.625C26.9513 50.625 33.5213 49.305 37.5 46.7963V48.75ZM37.5 41.25C37.5 43.5413 30.9262 46.875 20.625 46.875C10.3238 46.875 3.75 43.5413 3.75 41.25V39.2963C7.72875 41.805 14.2987 43.125 20.625 43.125C26.9513 43.125 33.5213 41.805 37.5 39.2963V41.25ZM20.625 39.375C10.3238 39.375 3.75 36.0413 3.75 33.75C3.75 31.4587 10.3238 28.125 20.625 28.125C30.9262 28.125 37.5 31.4587 37.5 33.75C37.5 36.0413 30.9262 39.375 20.625 39.375Z" fill="url(#paint1_linear)"/>
<defs>
<linearGradient id="paint0_linear" x1="18.75" y1="57.975" x2="60" y2="57.975" gradientUnits="userSpaceOnUse">
<stop stop-color="#FCC60E"/>
<stop offset="1" stop-color="#F47530"/>
</linearGradient>
<linearGradient id="paint1_linear" x1="0" y1="58.125" x2="41.25" y2="58.125" gradientUnits="userSpaceOnUse">
<stop stop-color="#FCC60E"/>
<stop offset="1" stop-color="#F47530"/>
</linearGradient>
</defs>
</svg>
