<svg width="60" height="60" viewBox="0 0 60 60" fill="none" xmlns="http://www.w3.org/2000/svg">
<g clip-path="url(#clip0)">
<path d="M60 24.7059V14.1176H49.4118V17.6471H53.9749L46.8032 24.8189C44.2668 20.9669 40.1009 18.2794 35.2941 17.7456V5.29412C35.2941 2.37494 32.9193 0 30 0H5.29412C2.37494 0 0 2.37494 0 5.29412V54.7059C0 57.6252 2.37494 60 5.29412 60H30C32.9193 60 35.2941 57.6252 35.2941 54.7059V49.3132C38.3529 48.9734 41.1521 47.7619 43.4372 45.9328L46.0338 48.5294L43.3867 51.1765L50.5969 58.3867C51.6373 59.4271 53.0206 60 54.4919 60C59.3632 60.0112 61.8431 54.0246 58.3867 50.5969L51.1765 43.3867L48.5294 46.0338L45.9328 43.4372C49.2747 39.4415 50.3836 33.1447 48.4709 28.1435L56.4706 20.1431V24.7059H60ZM55.8911 53.0926C56.2648 53.4664 56.4706 53.9632 56.4706 54.4919C56.482 56.2362 54.3147 57.134 53.0926 55.8911L48.378 51.1765L51.1765 48.378L55.8911 53.0926ZM44.2409 27.3813L40.5884 31.0339L37.0588 27.5044L30 34.5632L26.4706 31.0338L21.4388 36.0655C18.8789 22.1631 37.0455 15.4062 44.2409 27.3813ZM45.8824 33.5294C45.742 46.23 29.1151 50.4938 22.818 39.6777L26.4706 36.0251L30 39.5545L37.0588 32.4957L40.5881 36.0249L45.6201 30.9939C45.7918 31.8125 45.8824 32.6605 45.8824 33.5294ZM23.6153 3.52941L21.8506 7.05882H13.4436L11.6789 3.52941H23.6153ZM5.29412 3.52941H7.73294L11.2624 10.5882H24.0319L27.5613 3.52941H30C30.9731 3.52941 31.7647 4.32106 31.7647 5.29412V17.7456C21.7959 18.7162 15.0155 29.4189 18.5881 38.9161L3.52941 53.9749V5.29412C3.52941 4.32106 4.32106 3.52941 5.29412 3.52941ZM30 56.4706H6.02506L20.2556 42.24C22.792 46.092 26.9579 48.7794 31.7647 49.3132V54.7059C31.7647 55.6791 30.9732 56.4706 30 56.4706Z" fill="url(#paint0_linear)"/>
<path d="M7.05884 14.1177H22.9412V17.6471H7.05884V14.1177Z" fill="url(#paint1_linear)"/>
<path d="M7.05884 21.1765H15.8824V24.7059H7.05884V21.1765Z" fill="url(#paint2_linear)"/>
<path d="M7.05884 28.2353H14.1177V31.7647H7.05884V28.2353Z" fill="url(#paint3_linear)"/>
<path d="M7.05884 35.2941H12.353V38.8235H7.05884V35.2941Z" fill="url(#paint4_linear)"/>
</g>
<defs>
<linearGradient id="paint0_linear" x1="0" y1="60" x2="60" y2="60" gradientUnits="userSpaceOnUse">
<stop stop-color="#FCC60E"/>
<stop offset="1" stop-color="#F47530"/>
</linearGradient>
<linearGradient id="paint1_linear" x1="7.05884" y1="17.6471" x2="22.9412" y2="17.6471" gradientUnits="userSpaceOnUse">
<stop stop-color="#FCC60E"/>
<stop offset="1" stop-color="#F47530"/>
</linearGradient>
<linearGradient id="paint2_linear" x1="7.05884" y1="24.7059" x2="15.8824" y2="24.7059" gradientUnits="userSpaceOnUse">
<stop stop-color="#FCC60E"/>
<stop offset="1" stop-color="#F47530"/>
</linearGradient>
<linearGradient id="paint3_linear" x1="7.05884" y1="31.7647" x2="14.1177" y2="31.7647" gradientUnits="userSpaceOnUse">
<stop stop-color="#FCC60E"/>
<stop offset="1" stop-color="#F47530"/>
</linearGradient>
<linearGradient id="paint4_linear" x1="7.05884" y1="38.8235" x2="12.353" y2="38.8235" gradientUnits="userSpaceOnUse">
<stop stop-color="#FCC60E"/>
<stop offset="1" stop-color="#F47530"/>
</linearGradient>
<clipPath id="clip0">
<rect width="60" height="60" fill="white"/>
</clipPath>
</defs>
</svg>
