<svg width="60" height="60" viewBox="0 0 60 60" fill="none" xmlns="http://www.w3.org/2000/svg">
<path d="M60 35.0244V24.9756L52.0506 23.6507C51.5758 21.9987 50.9159 20.408 50.08 18.8999L54.766 12.3395L47.6605 5.234L41.1001 9.92C39.5919 9.084 38.0013 8.42412 36.3493 7.94941L35.0244 0H24.9756L23.6507 7.94941C21.9987 8.42424 20.408 9.08412 18.8999 9.92L12.3395 5.234L5.234 12.3395L9.92 18.8999C9.084 20.4081 8.42412 21.9987 7.94941 23.6507L0 24.9756V35.0244L7.94941 36.3493C8.42424 38.0013 9.08412 39.592 9.92 41.1001L5.234 47.6605L12.3395 54.766L18.8999 50.08C20.4081 50.916 21.9987 51.5759 23.6507 52.0507L24.9756 60H35.0244L36.3492 52.0506C38.0012 51.5758 39.5919 50.916 41.1 50.0799L47.6604 54.7659L54.7659 47.6604L50.0799 41.1C50.9159 39.5918 51.5758 38.0012 52.0505 36.3492L60 35.0244ZM50.1561 47.2789L47.2788 50.1561L41.2595 45.8566C40.6696 46.1738 38.3116 48.0052 34.3986 48.9115L33.2499 49.1775L32.0345 56.4706H27.9655L26.75 49.1775C26.0802 48.9758 23.164 48.6166 19.7407 46.4808L18.7404 45.8566L12.7211 50.1561L9.84376 47.2789L14.1433 41.2596C13.8207 40.6599 11.9942 38.3098 11.0884 34.3987L10.8224 33.25L3.52941 32.0345V27.9655L10.8225 26.75C11.0241 26.0802 11.3834 23.164 13.5192 19.7407L14.1434 18.7404L9.84388 12.7211L12.7212 9.84376L18.7405 14.1433C19.3402 13.8207 21.6904 11.9942 25.6014 11.0884L26.7501 10.8224L27.9655 3.52941H32.0345L33.2499 10.8225C33.9193 11.024 36.8361 11.3834 40.2592 13.5192L41.2595 14.1434L47.2788 9.84388L50.1561 12.7212L45.8566 18.7405C46.1791 19.3402 48.0056 21.6904 48.9115 25.6014L49.1775 26.7501L56.4706 27.9655V32.0345L49.1775 33.25C48.9759 33.9198 48.6166 36.836 46.4808 40.2593L45.8566 41.2596L50.1561 47.2789Z" fill="url(#paint0_linear)"/>
<path d="M30 15C21.7289 15 15 21.7289 15 30C15 38.2711 21.7289 45 30 45C38.2711 45 45 38.2711 45 30C45 21.7289 38.2711 15 30 15ZM24.8501 40.2474C25.4038 37.9162 27.5019 36.1765 30 36.1765C32.4981 36.1765 34.5962 37.9162 35.1499 40.2474C31.9171 41.8787 28.0844 41.8795 24.8501 40.2474ZM27.3529 30C27.3529 28.5404 28.5404 27.3529 30 27.3529C31.4596 27.3529 32.6471 28.5404 32.6471 30C32.6471 31.4596 31.4596 32.6471 30 32.6471C28.5404 32.6471 27.3529 31.4596 27.3529 30ZM38.1418 38.0716C37.4365 36.3885 36.2232 34.9701 34.6956 34.0058C35.6178 32.9264 36.1765 31.5276 36.1765 30C36.1765 26.5942 33.4058 23.8235 30 23.8235C26.5942 23.8235 23.8235 26.5942 23.8235 30C23.8235 31.5275 24.3821 32.9264 25.3044 34.0058C23.7768 34.9701 22.5635 36.3885 21.8582 38.0716C19.8018 35.9974 18.5294 33.1446 18.5294 30C18.5294 23.6751 23.6751 18.5294 30 18.5294C36.3249 18.5294 41.4706 23.6751 41.4706 30C41.4706 33.1446 40.1982 35.9974 38.1418 38.0716Z" fill="url(#paint1_linear)"/>
<defs>
<linearGradient id="paint0_linear" x1="0" y1="60" x2="60" y2="60" gradientUnits="userSpaceOnUse">
<stop stop-color="#FCC60E"/>
<stop offset="1" stop-color="#F47530"/>
</linearGradient>
<linearGradient id="paint1_linear" x1="15" y1="45" x2="45" y2="45" gradientUnits="userSpaceOnUse">
<stop stop-color="#FCC60E"/>
<stop offset="1" stop-color="#F47530"/>
</linearGradient>
</defs>
</svg>
