<svg width="60" height="60" viewBox="0 0 60 60" fill="none" xmlns="http://www.w3.org/2000/svg">
<path d="M42.8906 7.15347H35.2734V1.76376C35.2734 0.793304 34.4875 0.00640869 33.517 0.00595092L26.6016 0C25.6302 0 24.8438 0.788727 24.8438 1.75781V7.15347H17.1094C13.5553 7.15347 10.6641 10.0447 10.6641 13.5983V53.5551C10.6641 57.1088 13.5553 60 17.1094 60H42.8906C46.4447 60 49.3359 57.1088 49.3359 53.5551V13.5983C49.3359 10.0447 46.4447 7.15347 42.8906 7.15347ZM28.3594 3.517L31.7578 3.51974V10.6686H28.3594V3.517ZM45.8203 53.5551C45.8203 55.1701 44.5061 56.4844 42.8906 56.4844H17.1094C15.4939 56.4844 14.1797 55.1701 14.1797 53.5551V13.5983C14.1797 11.9833 15.4939 10.6691 17.1094 10.6691H24.8438V12.4265C24.8438 13.3974 25.6306 14.1843 26.6016 14.1843H33.5156C34.4865 14.1843 35.2734 13.3974 35.2734 12.4265V10.6691H42.8906C44.5061 10.6691 45.8203 11.9829 45.8203 13.5983V53.5551Z" fill="url(#paint0_linear)"/>
<path d="M40.5469 42.3061H19.4531C18.4822 42.3061 17.6953 43.093 17.6953 44.0639C17.6953 45.0348 18.4822 45.8217 19.4531 45.8217H40.5469C41.5178 45.8217 42.3047 45.0348 42.3047 44.0639C42.3047 43.093 41.5178 42.3061 40.5469 42.3061Z" fill="url(#paint1_linear)"/>
<path d="M26.4844 49.3369H19.4531C18.4822 49.3369 17.6953 50.1238 17.6953 51.0947C17.6953 52.0652 18.4822 52.8525 19.4531 52.8525H26.4844C27.4553 52.8525 28.2422 52.0652 28.2422 51.0947C28.2422 50.1238 27.4553 49.3369 26.4844 49.3369Z" fill="url(#paint2_linear)"/>
<path d="M40.5469 49.3369H33.5156C32.5447 49.3369 31.7578 50.1238 31.7578 51.0947C31.7578 52.0652 32.5447 52.8525 33.5156 52.8525H40.5469C41.5178 52.8525 42.3047 52.0652 42.3047 51.0947C42.3047 50.1238 41.5178 49.3369 40.5469 49.3369Z" fill="url(#paint3_linear)"/>
<path d="M22.9688 38.7913H37.0312C38.0022 38.7913 38.7891 38.004 38.7891 37.0335V33.5179C38.7891 30.282 37.0454 27.436 34.3835 25.8998C36.7163 22.4189 34.2128 17.6989 30 17.6989C25.7849 17.6989 23.2741 22.4281 25.6256 25.9135C22.8667 27.5303 21.2109 30.515 21.2109 33.6346V37.0335C21.2109 38.004 21.9978 38.7913 22.9688 38.7913ZM30 21.2146C30.9691 21.2146 31.7578 22.0033 31.7578 22.9724C31.7578 23.9415 30.9691 24.7297 30 24.7297C29.0309 24.7297 28.2422 23.9415 28.2422 22.9724C28.2422 22.0033 29.0309 21.2146 30 21.2146ZM24.7266 33.6346C24.7266 30.6491 27.1404 28.1881 30.108 28.2463C32.9562 28.3035 35.2734 30.6683 35.2734 33.5179V35.2757H24.7266V33.6346Z" fill="url(#paint4_linear)"/>
<defs>
<linearGradient id="paint0_linear" x1="10.6641" y1="60" x2="49.3359" y2="60" gradientUnits="userSpaceOnUse">
<stop stop-color="#FCC60E"/>
<stop offset="1" stop-color="#F47530"/>
</linearGradient>
<linearGradient id="paint1_linear" x1="17.6953" y1="45.8217" x2="42.3047" y2="45.8217" gradientUnits="userSpaceOnUse">
<stop stop-color="#FCC60E"/>
<stop offset="1" stop-color="#F47530"/>
</linearGradient>
<linearGradient id="paint2_linear" x1="17.6953" y1="52.8525" x2="42.3047" y2="52.8525" gradientUnits="userSpaceOnUse">
<stop stop-color="#FCC60E"/>
<stop offset="1" stop-color="#F47530"/>
</linearGradient>
<linearGradient id="paint3_linear" x1="17.6953" y1="52.8525" x2="42.3047" y2="52.8525" gradientUnits="userSpaceOnUse">
<stop stop-color="#FCC60E"/>
<stop offset="1" stop-color="#F47530"/>
</linearGradient>
<linearGradient id="paint4_linear" x1="21.2109" y1="38.7913" x2="38.7891" y2="38.7913" gradientUnits="userSpaceOnUse">
<stop stop-color="#FCC60E"/>
<stop offset="1" stop-color="#F47530"/>
</linearGradient>
</defs>
</svg>
