<svg width="129" height="73" viewBox="0 0 129 73" fill="none" xmlns="http://www.w3.org/2000/svg">
<path d="M111.478 0.658994C114.818 0.656956 118.084 1.649 120.862 3.50963C123.64 5.37027 125.806 8.01591 127.086 11.1119C128.365 14.2079 128.701 17.6152 128.051 20.9028C127.4 24.1903 125.793 27.2105 123.432 29.5813C121.071 31.952 118.062 33.5668 114.786 34.2215C111.51 34.8761 108.115 34.5411 105.029 33.259C101.942 31.9768 99.3047 29.805 97.4488 27.0183C95.5929 24.2316 94.6023 20.9551 94.6023 17.6034C94.6077 13.1129 96.3871 8.80777 99.5504 5.63155C102.714 2.45533 107.003 0.66717 111.478 0.658994ZM111.478 0.02036C108.012 0.02036 104.625 1.05159 101.743 2.98364C98.8615 4.91568 96.6156 7.66178 95.2894 10.8747C93.9632 14.0875 93.6162 17.6229 94.2923 21.0337C94.9684 24.4445 96.6372 27.5775 99.0877 30.0365C101.538 32.4955 104.66 34.1701 108.059 34.8486C111.458 35.527 114.982 35.1788 118.183 33.848C121.385 32.5172 124.122 30.2635 126.047 27.372C127.973 24.4805 129 21.081 129 17.6034C129.004 15.2922 128.554 13.003 127.675 10.8667C126.796 8.73047 125.506 6.78916 123.878 5.15397C122.251 3.51878 120.318 2.22183 118.19 1.33739C116.062 0.452955 113.781 -0.0015994 111.478 -0.000241105V0.02036Z" fill="#FAA21F"/>
<path d="M105.565 23.3719C105.635 23.4526 105.711 23.5283 105.791 23.5986L114.568 25.2878C114.986 25.1227 115.388 24.9193 115.769 24.6801L114.824 21.4045L105.565 23.3719Z" fill="#F78F22"/>
<path d="M111.478 25.8954C112.533 25.8906 113.579 25.6843 114.557 25.2877L105.781 23.5984C107.312 25.0744 109.354 25.8977 111.478 25.8954Z" fill="#F68922"/>
<path d="M116.641 11.135C115.41 10.1491 113.926 9.53467 112.36 9.36328L115.44 12.917L116.641 11.135Z" fill="#FFC815"/>
<path d="M116.641 11.1345L115.481 12.9165L119.71 18.211C119.71 18.0153 119.71 17.8093 119.71 17.6033C119.717 16.3627 119.444 15.1367 118.913 14.0167C118.381 12.8966 117.605 11.9114 116.641 11.1345Z" fill="#FCB316"/>
<path d="M115.768 24.7214C116.696 24.1545 117.501 23.4088 118.14 22.5274L114.824 21.4973L115.768 24.7214Z" fill="#F79421"/>
<path d="M114.824 21.4044L115.481 12.9167L109.455 17.243L114.824 21.4044Z" fill="#F8B119"/>
<path d="M109.456 17.2432L105.35 23.1351C105.416 23.2189 105.488 23.298 105.565 23.372L114.804 21.4046L109.456 17.2432Z" fill="#F89823"/>
<path d="M114.824 21.4044L118.14 22.4344C119.058 21.1884 119.602 19.7055 119.71 18.1597L115.481 12.8652L114.824 21.4044Z" fill="#FEBC18"/>
<path d="M115.481 12.9167L112.402 9.36297C112.096 9.31485 111.787 9.2839 111.478 9.27026C110.19 9.27319 108.92 9.58018 107.772 10.1664L109.456 17.2017L115.481 12.9167Z" fill="#FEBC18"/>
<path d="M107.782 10.2078C106.644 10.7746 105.653 11.5987 104.886 12.6153C104.119 13.6318 103.598 14.813 103.363 16.066C103.128 17.319 103.186 18.6095 103.533 19.8362C103.879 21.0628 104.505 22.192 105.36 23.1349L109.466 17.243L107.782 10.2078Z" fill="#FAA21F"/>
<path d="M59.1468 27.5333L56.1187 18.613C56.2968 21.8083 57.3441 24.8934 59.1468 27.5333Z" fill="#9E7AB7"/>
<path d="M56.4575 13.875C56.1937 15.0934 56.0595 16.3364 56.0571 17.5832C56.0571 17.9334 56.0571 18.2733 56.1085 18.6133L59.1366 27.5335C61.1894 30.5156 64.1065 32.7919 67.4923 34.0538L83.8342 18.603L56.4575 13.875Z" fill="#9771B1"/>
<path d="M64.4129 2.62646C62.3998 3.86648 60.6573 5.50213 59.2902 7.43511C57.9231 9.3681 56.9595 11.5585 56.4575 13.8747L83.8445 18.6438L64.4129 2.62646Z" fill="#8D63AA"/>
<path d="M73.5895 1.45846e-06C70.3462 -0.000892014 67.1674 0.908961 64.4126 2.62664L83.8442 18.644L90.3522 12.4637C89.26 8.85674 87.0408 5.69788 84.0224 3.45357C81.0039 1.20926 77.3463 -0.00153393 73.5895 1.45846e-06Z" fill="#7D53A2"/>
<path d="M67.5024 34.0537C69.7413 34.8986 72.1304 35.2689 74.519 35.1412C76.9076 35.0136 79.2439 34.3907 81.3807 33.312L83.8443 18.644L67.5024 34.0537Z" fill="#865DA7"/>
<path d="M81.3809 33.312C84.4511 31.7781 87.0062 29.3753 88.7306 26.4004L83.8445 18.644L81.3809 33.312Z" fill="#8056A3"/>
<path d="M88.7304 26.4C89.9389 24.3146 90.7049 22.0011 90.9805 19.6046C91.256 17.2082 91.0352 14.7804 90.3317 12.4736L83.8237 18.654L88.7304 26.4Z" fill="#855CA6"/>
<path d="M28.1057 19.0355C28.2927 21.3815 28.949 23.6657 30.0355 25.7514L32.0372 18.4277L28.1057 19.0355Z" fill="#559ED6"/>
<path d="M30.0559 9.40405C28.7178 11.9217 28.013 14.7293 28.0029 17.5827C28.0029 18.0668 28.0029 18.5509 28.0748 19.0351L32.0063 18.3964L30.0559 9.40405Z" fill="#59A0D7"/>
<path d="M39.202 1.20532C35.2632 2.75621 32.0152 5.68257 30.0559 9.44576L32.037 18.4381L39.202 1.20532Z" fill="#529BD4"/>
<path d="M32.0368 18.3969L30.0352 25.7515C30.5185 26.6804 31.0854 27.5631 31.7289 28.3884L37.8879 17.8716L32.0368 18.3969Z" fill="#63A6DA"/>
<path d="M37.8779 17.8405L39.6024 1.03003L39.2021 1.17424L32.0166 18.3659L37.8779 17.8405Z" fill="#7AB6E3"/>
<path d="M45.5864 5.88172L40.4539 0.731445C40.1563 0.82415 39.8586 0.937456 39.5712 1.04046L37.8774 17.8407L45.5864 5.88172Z" fill="#63A6DA"/>
<path d="M31.729 28.3572C33.0981 30.1189 34.7874 31.6043 36.7075 32.7349L37.8777 17.8403L31.729 28.3572Z" fill="#5099D3"/>
<path d="M36.7075 32.7349C39.7092 34.5068 43.1706 35.3369 46.6463 35.1185C50.122 34.9 53.4531 33.643 56.211 31.5092L37.8777 17.8403L36.7075 32.7349Z" fill="#4790CD"/>
<path d="M37.8774 17.8403L54.3938 13.5141L45.5864 5.88135L37.8774 17.8403Z" fill="#6AABDD"/>
<path d="M37.8774 17.8406L56.221 31.5095C57.4165 30.5861 58.4894 29.513 59.4134 28.3163L54.4041 13.5144L37.8774 17.8406Z" fill="#75B2E1"/>
<path d="M49.2722 5.23243L40.9165 0.648682L40.4854 0.751687L45.6178 5.90196L49.2722 5.23243Z" fill="#3B87C8"/>
<path d="M52.0948 1.27727C50.0165 0.436346 47.7969 0.00277477 45.556 0C43.9873 0.00404355 42.4263 0.222359 40.9163 0.648935L49.272 5.23268L52.0948 1.27727Z" fill="#4F9AD4"/>
<path d="M45.5869 5.8816L54.3943 13.5143L49.2823 5.23267L45.5869 5.8816Z" fill="#3884C6"/>
<path d="M54.4045 13.5144L54.1992 2.29714C53.5396 1.90617 52.8536 1.56198 52.1462 1.26709L49.272 5.2328L54.4045 13.5144Z" fill="#4790CD"/>
<path d="M59.4136 28.3163C61.7883 25.2458 63.0776 21.4698 63.0782 17.5831C63.0744 16.717 63.0024 15.8524 62.8626 14.9977L54.4043 13.5144L59.4136 28.3163Z" fill="#60A4D9"/>
<path d="M59.342 6.75701C57.9386 4.94744 56.1948 3.43205 54.2095 2.29688L54.4045 13.5142L59.342 6.75701Z" fill="#63A6DA"/>
<path d="M54.4043 13.5142L62.8729 14.9975C62.4318 11.9906 61.2184 9.15074 59.352 6.75708L54.4043 13.5142Z" fill="#529AD4"/>
<path d="M7.85274 2.92529C5.43487 4.5231 3.45114 6.69945 2.08029 9.25824C0.709441 11.817 -0.00544909 14.6779 3.12732e-05 17.583C3.12732e-05 18.1495 3.12727e-05 18.7057 0.0821511 19.262L12.0716 21.6311L7.85274 2.92529Z" fill="#5A8D3E"/>
<path d="M0.297852 20.7144C0.70898 23.0046 1.57092 25.1897 2.8333 27.1419L3.14125 27.0183L0.297852 20.7144Z" fill="#6A9D41"/>
<path d="M12.0718 21.6308L0.0822754 19.2617C0.137022 19.7561 0.208877 20.2403 0.29784 20.7141L3.14124 27.018L12.0718 21.6308Z" fill="#4F823C"/>
<path d="M25.3238 1.85296C22.5817 0.469619 19.5245 -0.163566 16.4607 0.0172821C13.3969 0.198131 10.4348 1.18662 7.87329 2.88301L12.0717 21.63L25.3238 1.85296Z" fill="#6A9D41"/>
<path d="M2.83325 27.1422C2.87848 27.2315 2.92993 27.3176 2.98723 27.3997L3.1412 27.0186L2.83325 27.1422Z" fill="#99CC67"/>
<path d="M3.14128 27.0186L2.9873 27.3997C5.07848 30.5157 8.10979 32.8773 11.6365 34.1379C15.1632 35.3985 18.9997 35.4918 22.5832 34.4041L3.14128 27.0186Z" fill="#689D41"/>
<path d="M3.14087 27.0185L22.5827 34.404C23.2836 34.2013 23.9696 33.9501 24.6357 33.6521L12.0714 21.6313L3.14087 27.0185Z" fill="#73A541"/>
<path d="M12.0718 21.6313L24.6361 33.6521C26.0409 33.0295 27.3591 32.2262 28.5573 31.2624L32.068 18.397L12.0718 21.6313Z" fill="#639640"/>
<path d="M32.0372 18.3967L28.9577 4.24373C27.8638 3.30029 26.6569 2.49751 25.3649 1.854L12.0718 21.6311L32.0372 18.3967Z" fill="#73A541"/>
<path d="M34.3672 12.8034C33.4331 9.4724 31.5363 6.4938 28.9165 4.24365L31.996 18.3966L34.3672 12.8034Z" fill="#6C9F41"/>
<path d="M28.5264 31.2622C30.4905 29.6723 32.0876 27.674 33.2076 25.4048C34.3276 23.1357 34.9438 20.6499 35.0138 18.1187L32.037 18.3968L28.5264 31.2622Z" fill="#73A641"/>
<path d="M35.0137 18.1185C35.0137 17.9331 35.0137 17.758 35.0137 17.5829C35.0097 15.966 34.7817 14.3574 34.3363 12.8035L32.0061 18.3967L35.0137 18.1185Z" fill="#96C964"/>
<path d="M25.3442 72.5879V68.6634C25.3442 68.4368 25.4264 68.3337 25.683 68.3337H26.8532C28.1979 68.3337 28.9062 69.2093 28.9062 70.6102C28.9062 72.011 28.28 72.9278 26.925 72.9278H25.6625C25.4469 72.9175 25.3442 72.8145 25.3442 72.5879ZM26.8224 68.8797H25.9499V72.3716H26.8532C27.9413 72.3716 28.2903 71.6299 28.2903 70.6102C28.2903 69.5904 27.931 68.8797 26.8224 68.8797Z" fill="#999999"/>
<path d="M30.61 68.3442H30.959C31.0514 68.3442 31.0822 68.3442 31.0822 68.4472V72.8044C31.0822 72.9074 31.0822 72.9177 30.959 72.9177H30.61C30.5176 72.9177 30.4766 72.9177 30.4766 72.8044V68.4472C30.4766 68.3545 30.5176 68.3442 30.61 68.3442Z" fill="#999999"/>
<path d="M34.2337 72.9893C33.6647 72.999 33.1005 72.883 32.5811 72.6494C32.5811 72.6494 32.5195 72.5773 32.5811 72.5155L32.7351 72.1756C32.7323 72.1614 32.7338 72.1466 32.7395 72.1333C32.7452 72.12 32.7548 72.1087 32.767 72.1009C32.7792 72.0931 32.7934 72.0892 32.8079 72.0896C32.8223 72.0901 32.8363 72.0949 32.848 72.1035C33.2759 72.2923 33.7358 72.3972 34.203 72.4125C34.8599 72.4125 35.2295 72.1653 35.2295 71.6915C35.2295 71.2176 34.8599 71.0219 34.203 70.7644C33.2483 70.4142 32.7556 70.0949 32.7556 69.4357C32.7556 68.7764 33.2586 68.2305 34.203 68.2305C34.6701 68.2292 35.1334 68.3166 35.5682 68.488C35.5826 68.5033 35.5907 68.5236 35.5907 68.5447C35.5907 68.5657 35.5826 68.586 35.5682 68.6013L35.4142 69.0133C35.4142 69.0648 35.4142 69.0751 35.3321 69.0133C34.9502 68.8591 34.5427 68.7787 34.1311 68.7764C33.6178 68.7764 33.3202 69.0236 33.3202 69.3841C33.3202 69.7447 33.6897 69.9713 34.4596 70.2803C35.2295 70.5893 35.8351 70.8571 35.8351 71.6606C35.8351 72.464 35.1371 72.9893 34.2337 72.9893Z" fill="#999999"/>
<path d="M36.8614 68.8696C36.7793 68.8696 36.769 68.8696 36.769 68.7666V68.4472C36.769 68.3751 36.769 68.3442 36.8614 68.3442H40.0333C40.1052 68.3442 40.1257 68.3442 40.1257 68.4472V68.7666C40.1257 68.849 40.1257 68.8696 40.0333 68.8696H38.7399V72.8044C38.7399 72.9074 38.7399 72.9177 38.627 72.9177H38.2575C38.1651 72.9177 38.1343 72.9177 38.1343 72.8044V68.8696H36.8614Z" fill="#999999"/>
<path d="M41.7067 68.3235H43.1951C43.3719 68.3075 43.55 68.3291 43.7179 68.3869C43.8858 68.4447 44.0397 68.5374 44.1695 68.6589C44.2993 68.7804 44.4021 68.928 44.4712 69.092C44.5403 69.2561 44.5742 69.4329 44.5706 69.611C44.5831 69.8529 44.5181 70.0924 44.3851 70.2944C44.2521 70.4965 44.0581 70.6505 43.8315 70.7338C43.9812 70.7749 44.1156 70.8593 44.2178 70.9765C44.3201 71.0938 44.3856 71.2386 44.4063 71.393L44.7861 72.763C44.7861 72.763 44.7861 72.8866 44.704 72.8866H44.2729C44.2472 72.8897 44.2213 72.8829 44.2003 72.8676C44.1794 72.8523 44.165 72.8297 44.16 72.8042L43.811 71.5475C43.7711 71.3477 43.656 71.171 43.4898 71.054C43.3235 70.937 43.1187 70.8888 42.9179 70.9192H41.9838V72.7733C41.9838 72.8763 41.9838 72.8866 41.8606 72.8866H41.5014C41.409 72.8866 41.3782 72.8866 41.3782 72.7733V68.6531C41.3782 68.4368 41.45 68.3235 41.7067 68.3235ZM43.1232 68.8797H41.9941V70.4248H43.113C43.7391 70.4248 44.006 70.0746 44.006 69.6419C44.0117 69.5284 43.9912 69.415 43.9463 69.3106C43.9013 69.2062 43.833 69.1136 43.7467 69.0399C43.6604 68.9663 43.5583 68.9135 43.4484 68.8857C43.3385 68.8579 43.2238 68.8559 43.113 68.8797H43.1232Z" fill="#999999"/>
<path d="M46.3158 68.3442H46.6648C46.7572 68.3442 46.788 68.3442 46.788 68.4472V72.8044C46.788 72.9074 46.788 72.9177 46.6648 72.9177H46.3158C46.2234 72.9177 46.1926 72.9177 46.1926 72.8044V68.4472C46.1926 68.3545 46.1926 68.3442 46.3158 68.3442Z" fill="#999999"/>
<path d="M51.8586 71.5578C51.8563 71.7463 51.8156 71.9324 51.7389 72.1045C51.6622 72.2766 51.5512 72.4311 51.4127 72.5585C51.2742 72.6859 51.1111 72.7835 50.9336 72.8452C50.7561 72.907 50.5678 72.9316 50.3805 72.9175H48.8304C48.5943 72.9175 48.502 72.8145 48.502 72.5879V68.6634C48.502 68.4368 48.5738 68.3337 48.8304 68.3337H50.2983C51.0887 68.3337 51.6738 68.6531 51.6738 69.4668C51.6724 69.6542 51.62 69.8376 51.5223 69.9974C51.4246 70.1571 51.2854 70.287 51.1195 70.3732C51.3539 70.4638 51.5527 70.6282 51.686 70.8418C51.8192 71.0554 51.8798 71.3067 51.8586 71.5578ZM50.2983 70.1775C50.3935 70.1879 50.4899 70.1777 50.5808 70.1474C50.6717 70.1171 50.755 70.0676 50.8252 70.0021C50.8953 69.9366 50.9505 69.8568 50.9872 69.7679C51.0238 69.6791 51.0409 69.5834 51.0374 69.4874C51.0366 69.4007 51.0175 69.3151 50.9815 69.2362C50.9456 69.1574 50.8934 69.087 50.8286 69.0296C50.7637 68.9723 50.6875 68.9293 50.605 68.9035C50.5225 68.8777 50.4355 68.8696 50.3497 68.8797H49.0973V70.1775H50.2983ZM50.2983 70.6823H49.0973V72.3715H50.2983C50.4185 72.3867 50.5404 72.3753 50.6557 72.3382C50.771 72.3011 50.8768 72.2392 50.9658 72.1568C51.0547 72.0744 51.1247 71.9735 51.1708 71.8611C51.2168 71.7488 51.2379 71.6277 51.2324 71.5063C51.2427 71.0119 50.9142 70.6823 50.2983 70.6823Z" fill="#999999"/>
<path d="M53.4599 68.3442H53.8499C53.9218 68.3442 53.9628 68.3442 53.9628 68.4472V70.9091C53.9628 71.9391 54.1579 72.4644 55.3486 72.4644C55.6413 72.4628 55.9333 72.4352 56.2212 72.382V68.4472C56.2212 68.3545 56.2212 68.3442 56.3341 68.3442H56.7139C56.796 68.3442 56.8063 68.3442 56.8063 68.4472V72.3408C56.8148 72.4109 56.8089 72.4821 56.7889 72.5498C56.7689 72.6175 56.7352 72.6804 56.6899 72.7345C56.6447 72.7886 56.5888 72.8327 56.5259 72.8643C56.4629 72.8958 56.3941 72.914 56.3238 72.9177C55.9847 72.9755 55.6412 73.0031 55.2973 73.0001C53.8499 73.0001 53.3264 72.5056 53.3264 70.94V68.4472C53.3777 68.3545 53.3777 68.3442 53.4599 68.3442Z" fill="#999999"/>
<path d="M58.1307 68.8696C58.0589 68.8696 58.0383 68.8696 58.0383 68.7666V68.4472C58.0383 68.3751 58.0383 68.3442 58.1307 68.3442H61.3231C61.4052 68.3442 61.4155 68.3442 61.4155 68.4472V68.7666C61.4155 68.849 61.4155 68.8696 61.3231 68.8696H60.0195V72.8044C60.0195 72.9074 60.0195 72.9177 59.8963 72.9177H59.537C59.4549 72.9177 59.4138 72.9177 59.4138 72.8044V68.8696H58.1307Z" fill="#999999"/>
<path d="M62.8527 68.3442H63.2119C63.3043 68.3442 63.3351 68.3442 63.3351 68.4472V72.8044C63.3351 72.9074 63.3351 72.9177 63.2119 72.9177H62.8527C62.7706 72.9177 62.7295 72.9177 62.7295 72.8044V68.4472C62.7295 68.3545 62.7706 68.3442 62.8527 68.3442Z" fill="#999999"/>
<path d="M66.8356 72.9896C65.5524 72.9896 64.916 72.1553 64.916 70.6308C64.916 69.1063 65.7372 68.272 66.8458 68.272C68.1289 68.272 68.7962 69.1475 68.7962 70.6102C68.7962 72.0729 68.1289 72.9896 66.8356 72.9896ZM66.8356 68.8076C65.9117 68.8076 65.4806 69.6316 65.4806 70.6102C65.4806 71.5888 65.7988 72.454 66.815 72.454C67.8313 72.454 68.1495 71.5784 68.1495 70.6308C68.1495 69.6831 67.9339 68.8076 66.8664 68.8076H66.8356Z" fill="#999999"/>
<path d="M73.3536 68.3338H73.6924C73.7745 68.3338 73.8156 68.3338 73.8156 68.4471V72.5673C73.8156 72.7837 73.7437 72.897 73.4973 72.897H73.3228C73.1278 72.897 73.0868 72.8249 72.9636 72.6394L71.4136 70.0437L70.9003 69.1578V72.7734C70.9003 72.8764 70.9003 72.8867 70.7771 72.8867H70.4179C70.3357 72.8867 70.2947 72.8867 70.2947 72.7734V68.6531C70.2947 68.4368 70.3665 68.3235 70.6129 68.3235H70.8285C71.0132 68.3235 71.0645 68.3956 71.1877 68.581L72.6556 71.0738L73.2099 72.0214V68.4471C73.2305 68.3441 73.2715 68.3338 73.3536 68.3338Z" fill="#999999"/>
<path d="M79.2972 72.9897C78.7248 72.9996 78.1572 72.8835 77.6343 72.6498C77.6343 72.6498 77.6343 72.5777 77.6343 72.5159L77.7883 72.176C77.7949 72.1691 77.8029 72.1637 77.8117 72.16C77.8206 72.1562 77.83 72.1543 77.8396 72.1543C77.8491 72.1543 77.8586 72.1562 77.8674 72.16C77.8762 72.1637 77.8842 72.1691 77.8909 72.176C78.3221 72.3658 78.7855 72.4707 79.2561 72.485C79.9131 72.485 80.2826 72.2378 80.2826 71.7639C80.2826 71.2901 79.9131 71.0944 79.2561 70.8369C78.3015 70.4867 77.819 70.1674 77.819 69.5081C77.819 68.8489 78.322 68.303 79.2664 68.303C79.7335 68.3027 80.1966 68.39 80.6317 68.5605C80.6461 68.5758 80.6541 68.5961 80.6541 68.6171C80.6541 68.6382 80.6461 68.6585 80.6317 68.6738L80.4777 69.0137C80.4777 69.0652 80.4777 69.0755 80.3956 69.0137C80.0137 68.8595 79.6062 68.7791 79.1946 68.7768C78.671 68.7768 78.3734 69.024 78.3734 69.3845C78.3734 69.7451 78.7429 69.9717 79.523 70.2807C80.3032 70.5897 80.8985 70.8575 80.8985 71.6609C80.8985 72.4644 80.2005 72.9897 79.2972 72.9897Z" fill="#999999"/>
<path d="M83.875 72.8146C83.875 72.9073 83.875 72.9176 83.7724 72.9176H83.3926C83.3207 72.9176 83.2899 72.9176 83.2899 72.8146V71.0738L81.8015 68.3956C81.8015 68.3956 81.8015 68.3235 81.8631 68.3235H82.3353C82.4071 68.3235 82.4379 68.3235 82.4687 68.4059L83.0641 69.5287L83.5774 70.5587L84.1111 69.5287L84.686 68.4368C84.6967 68.4107 84.7154 68.3887 84.7394 68.3739C84.7634 68.3591 84.7914 68.3522 84.8194 68.3544H85.2608C85.2608 68.3544 85.2608 68.3544 85.2608 68.4265L83.875 71.0738V72.8146Z" fill="#999999"/>
<path d="M87.9813 72.9895C87.4122 72.9992 86.848 72.8832 86.3286 72.6496C86.3286 72.6496 86.2671 72.5775 86.3286 72.5157L86.4929 72.1758C86.4929 72.1758 86.4929 72.114 86.5955 72.1758C87.0231 72.3655 87.4832 72.4705 87.9505 72.4848C88.6177 72.4848 88.977 72.2376 88.977 71.7638C88.977 71.2899 88.6075 71.0942 87.8992 70.8367C86.9445 70.4865 86.4621 70.1672 86.4621 69.5079C86.4621 68.8487 86.9548 68.3028 87.8992 68.3028C88.3665 68.3005 88.8299 68.3879 89.2644 68.5603C89.2789 68.5756 89.2869 68.5959 89.2869 68.6169C89.2869 68.638 89.2789 68.6583 89.2644 68.6736L89.131 69.0444C89.131 69.0959 89.131 69.1062 89.0386 69.0444C88.66 68.8912 88.2561 68.8108 87.8479 68.8075C87.3244 68.8075 87.0267 69.0547 87.0267 69.4152C87.0267 69.7758 87.3962 70.0024 88.1661 70.3114C88.936 70.6204 89.5416 70.8882 89.5416 71.6916C89.5416 72.4951 88.8846 72.9895 87.9813 72.9895Z" fill="#999999"/>
<path d="M90.609 68.8696C90.5269 68.8696 90.5166 68.8696 90.5166 68.7666V68.4472C90.5166 68.3751 90.5166 68.3442 90.609 68.3442H93.8014C93.8733 68.3442 93.8938 68.3442 93.8938 68.4472V68.7666C93.8938 68.849 93.8938 68.8696 93.8014 68.8696H92.4875V72.8044C92.4875 72.9074 92.4875 72.9177 92.3746 72.9177H92.005C91.9126 72.9177 91.8716 72.9177 91.8716 72.8044V68.8696H90.609Z" fill="#999999"/>
<path d="M98.0305 72.9177H96.2239C96.075 72.9288 95.9255 72.9072 95.7859 72.8544C95.6462 72.8016 95.5196 72.7189 95.4151 72.612C95.3105 72.5051 95.2304 72.3767 95.1804 72.2355C95.1304 72.0944 95.1117 71.944 95.1255 71.7949V69.4567C95.1117 69.3075 95.1304 69.1572 95.1804 69.016C95.2304 68.8749 95.3105 68.7464 95.4151 68.6395C95.5196 68.5326 95.6462 68.4499 95.7859 68.3971C95.9255 68.3444 96.075 68.3228 96.2239 68.3339H97.9997C98.1024 68.3339 98.1229 68.3339 98.1229 68.4678V68.7459C98.1229 68.8489 98.1229 68.8798 97.9997 68.8798H96.2341C95.8646 68.8798 95.7106 69.0343 95.7106 69.3743V70.2189H97.7636C97.8663 70.2189 97.8868 70.2189 97.8868 70.3631V70.6103C97.8868 70.6927 97.8868 70.7442 97.7636 70.7442H95.7106V71.8773C95.7106 72.176 95.8543 72.3717 96.2341 72.3717H98.0305C98.1331 72.3717 98.1537 72.3717 98.1537 72.5056V72.7838C98.1537 72.8765 98.1331 72.9177 98.0305 72.9177Z" fill="#999999"/>
<path d="M103.235 69.3946C103.235 69.3946 102.906 70.2392 102.886 70.2907C102.804 70.4968 102.219 71.9285 102.137 72.114C102.054 72.2994 102.003 72.3818 101.808 72.3818H101.623C101.418 72.3818 101.356 72.32 101.285 72.114C101.213 71.9079 100.597 70.5071 100.525 70.3011L100.186 69.4667V72.8041C100.186 72.9071 100.186 72.9174 100.063 72.9174H99.7345C99.6524 72.9174 99.6113 72.9174 99.6113 72.8041V68.6839C99.6113 68.4779 99.6832 68.3542 99.9398 68.3542H100.114C100.299 68.3542 100.381 68.3542 100.474 68.6118L101.367 70.847C101.367 70.9191 101.716 71.774 101.757 71.877C101.757 71.8152 102.106 70.9809 102.137 70.9191L103.04 68.653C103.132 68.447 103.214 68.3955 103.399 68.3955H103.574C103.841 68.3955 103.892 68.5191 103.892 68.7251V72.8453C103.892 72.9483 103.892 72.9586 103.769 72.9586H103.45C103.358 72.9586 103.317 72.9586 103.317 72.8453V69.3946H103.235Z" fill="#999999"/>
<path d="M8.31497 44.4878C10.0275 44.4486 11.7264 44.8008 13.2832 45.5179C13.7862 45.7548 13.7657 45.8475 13.5193 46.4552L12.9342 48.2681C12.7392 48.8037 12.6365 48.8552 12.1335 48.7007C10.9101 48.3559 9.6472 48.1724 8.37656 48.1548C7.35006 48.1548 7.11397 48.4844 7.11397 48.8965C7.11397 49.3085 7.28848 49.6587 8.72557 50.184C12.1951 51.5025 14.3713 52.6149 14.3713 55.5094C14.3713 58.5996 12.2157 60.2168 8.45868 60.2168C6.36508 60.2826 4.2909 59.796 2.4434 58.8056C2.16625 58.6305 2.12519 58.4554 2.29969 58.0124L3.14142 55.9523C3.33646 55.4579 3.49043 55.4579 3.92156 55.633C5.33804 56.1538 6.82786 56.4458 8.3355 56.4983C9.70075 56.4983 9.91631 55.9111 9.91631 55.5403C9.91631 55.1695 9.76234 54.6854 8.21232 54.0982C5.19442 52.9858 2.87453 51.8321 2.87453 49.2158C2.87453 46.5994 4.46561 44.4878 8.31497 44.4878Z" fill="#214F67"/>
<path d="M19.9963 56.9927L19.2778 59.4957C19.1649 59.8253 19.0827 59.9798 18.5798 59.9798H15.3976C15.1205 59.9798 15.0589 59.8047 15.1205 59.5678L19.401 46.0741C19.4298 45.8621 19.5005 45.658 19.6089 45.4738C19.7174 45.2896 19.8614 45.129 20.0326 45.0014C20.2037 44.8738 20.3985 44.7818 20.6056 44.7307C20.8127 44.6797 21.0278 44.6706 21.2384 44.7042H22.9937C24.0202 44.7042 24.5335 44.766 24.9441 46.0535L29.2246 59.5678C29.2861 59.712 29.2861 59.9798 28.9371 59.9798H25.6626C25.3136 59.9798 25.0775 59.9798 24.9851 59.609L24.2768 56.9927H19.9963ZM23.3838 53.7686L22.9732 52.069L22.2752 48.9789H22.1007L21.3616 52.1823L20.9099 53.8201L23.3838 53.7686Z" fill="#214F67"/>
<path d="M36.954 55.3343L37.9805 51.0698L39.6229 45.0749C39.7153 44.7453 39.9513 44.7041 40.3004 44.7041H43.6673C44.0163 44.7041 44.0163 44.9616 43.9547 45.1161L39.5613 58.6304C39.0994 59.9592 38.6066 59.9798 37.6007 59.9798H36.0404C35.0139 59.9798 34.6033 59.7841 34.1927 58.5995L29.7685 45.1161C29.6966 44.8792 29.7685 44.7041 30.0456 44.7041H33.3202C33.8232 44.7041 33.9155 44.8586 34.0182 45.1779L35.7119 51.0183L36.8411 55.3343H36.954Z" fill="#214F67"/>
<path d="M50.7196 60.217C48.8069 60.2646 46.9084 59.8772 45.1662 59.0839C45.0122 59.0015 44.9712 58.847 45.0738 58.6513L45.5973 57.4976C45.6093 57.4641 45.6284 57.4336 45.6532 57.4082C45.678 57.3827 45.7081 57.363 45.7412 57.3503C45.7743 57.3376 45.8098 57.3322 45.8452 57.3345C45.8806 57.3368 45.9151 57.3468 45.9463 57.3637C47.3763 58.0036 48.9182 58.3536 50.4835 58.3938C52.6802 58.3938 53.9736 57.5491 53.9736 55.9834C53.9736 54.4177 52.7623 53.7585 50.3911 52.8933C47.1987 51.7396 45.5973 50.6786 45.5973 48.4743C45.5973 46.0949 47.2705 44.4674 50.4219 44.4674C51.9761 44.4551 53.5176 44.7491 54.959 45.3327C54.9948 45.3449 55.0277 45.3646 55.0553 45.3906C55.083 45.4166 55.1048 45.4481 55.1194 45.4832C55.1339 45.5183 55.1409 45.556 55.1398 45.594C55.1387 45.632 55.1295 45.6693 55.113 45.7035L54.6305 46.9292C54.5381 47.125 54.4971 47.1456 54.3431 47.0735C53.0745 46.5551 51.7196 46.2825 50.35 46.27C48.6152 46.27 47.6195 47.125 47.6195 48.3301C47.6195 49.7928 48.8513 50.2666 51.4381 51.3173C53.8504 52.234 56.0163 53.2332 56.0163 55.9113C56.0573 58.8058 53.7375 60.217 50.7196 60.217Z" fill="#214F67"/>
<path d="M68.0058 59.9802H61.97C59.1266 59.9802 58.2952 58.2601 58.2952 56.2514V48.4127C58.2952 46.4041 59.3217 44.6633 61.97 44.6633H67.8929C68.2214 44.6633 68.283 44.7972 68.283 45.1166V46.0333C68.283 46.3629 68.2214 46.4659 67.8929 46.4659H61.9906C60.769 46.4659 60.2763 46.9913 60.2763 48.1243V50.957H67.1744C67.5028 50.957 67.5644 51.0909 67.5644 51.4205V52.2445C67.5644 52.5329 67.5028 52.6772 67.1744 52.6772H60.2763V56.4678C60.2763 57.4978 60.7485 58.1055 61.9906 58.1055H68.0058C68.3548 58.1055 68.4164 58.2394 68.4164 58.5588V59.4755C68.4164 59.8463 68.3548 59.9802 68.0058 59.9802Z" fill="#214F67"/>
<path d="M71.978 44.6838H76.9873C79.7486 44.6838 81.5758 46.4658 81.5758 48.9792C81.6035 49.7893 81.3725 50.587 80.9163 51.256C80.4602 51.925 79.8028 52.4301 79.0403 52.6976V52.7904C79.5318 52.9356 79.9712 53.2197 80.3062 53.6087C80.6411 53.9978 80.8573 54.4753 80.9291 54.9844L82.1814 59.5887C82.2533 59.7329 82.2533 59.9801 81.9248 59.9801H80.4877C80.3981 59.9921 80.3074 59.9687 80.2347 59.9149C80.1619 59.8611 80.1128 59.7811 80.0976 59.6917L78.9479 55.5715C78.8066 54.9122 78.4198 54.332 77.8666 53.9491C77.3134 53.5663 76.6354 53.4097 75.9711 53.5114H72.8813V59.6917C72.8813 60.0213 72.789 60.0625 72.4707 60.0625H71.28C71.0029 60.0625 70.8694 60.0625 70.8694 59.6917V45.7963C70.8283 45.0341 71.126 44.6838 71.978 44.6838ZM76.7102 46.5379H72.9327V51.6882H76.5562C78.6092 51.6882 79.533 50.5139 79.533 49.0719C79.533 47.9079 78.9069 46.5379 76.7102 46.5379Z" fill="#214F67"/>
<path d="M90.2188 59.98H89.3052C89.1783 60.0036 89.048 60.0014 88.922 59.9735C88.7959 59.9456 88.6767 59.8927 88.5714 59.8178C88.4661 59.7428 88.3769 59.6475 88.309 59.5374C88.2411 59.4272 88.1959 59.3045 88.1761 59.1765L83.1976 44.9824C83.136 44.8382 83.1976 44.7043 83.3721 44.7043H84.9426C85.0239 44.7004 85.1041 44.7235 85.1709 44.7701C85.2378 44.8167 85.2874 44.884 85.3122 44.9618C85.3122 45.0957 88.0632 53.4185 88.5046 54.5516C88.5662 54.7267 89.5311 57.6418 89.6337 57.9096H89.7364L90.7629 54.5722L93.9963 44.9618C94.099 44.7043 94.2119 44.7043 94.448 44.7043H95.9467C96.1212 44.7043 96.1623 44.7867 96.1007 44.9824L91.1735 59.1765C90.9784 59.7431 90.8039 59.9594 90.2188 59.98Z" fill="#214F67"/>
<path d="M98.8105 44.7249H99.991C100.309 44.7249 100.402 44.7249 100.402 45.0957V59.6091C100.402 59.9388 100.309 59.98 99.991 59.98H98.8105C98.5333 59.98 98.3999 59.98 98.3999 59.6091V45.0957C98.3999 44.7661 98.5436 44.7249 98.8105 44.7249Z" fill="#214F67"/>
<path d="M113.777 57.5593C114.106 57.4048 114.208 57.5593 114.28 57.7344L114.691 58.6512C114.865 59.0014 114.773 59.0632 114.578 59.2177C113.157 59.948 111.574 60.3026 109.979 60.2478C105.873 60.2478 103.502 57.8683 103.502 52.6048C103.502 47.7017 106.171 44.5394 110.123 44.5394C111.525 44.4933 112.915 44.8014 114.167 45.4356C114.342 45.518 114.424 45.6519 114.28 45.93L113.777 46.9601C113.685 47.1249 113.623 47.2176 113.387 47.1043C112.389 46.6583 111.308 46.4301 110.215 46.4347C106.91 46.4347 105.545 49.4631 105.545 52.6151C105.545 55.767 106.653 58.3834 110.318 58.3834C111.516 58.3559 112.695 58.0751 113.777 57.5593Z" fill="#214F67"/>
<path d="M126.629 59.9802H120.593C117.749 59.9802 116.928 58.2601 116.928 56.2514V48.4127C116.928 46.4041 117.955 44.6633 120.593 44.6633H126.516C126.844 44.6633 126.916 44.7972 126.916 45.1166V46.0333C126.916 46.3629 126.844 46.4659 126.516 46.4659H120.613C119.402 46.4659 118.899 46.9913 118.899 48.1243V50.957H125.807C126.126 50.957 126.198 51.0909 126.198 51.4205V52.2445C126.198 52.5329 126.126 52.6772 125.807 52.6772H118.899V56.4678C118.899 57.4978 119.382 58.1055 120.613 58.1055H126.629C126.978 58.1055 127.039 58.2394 127.039 58.5588V59.4755C127.039 59.8463 126.978 59.9802 126.629 59.9802Z" fill="#214F67"/>
<path d="M17.7278 10.3005C19.2964 10.2575 20.8545 10.5709 22.2854 11.2173C22.7473 11.4439 22.7268 11.516 22.5113 12.0825L21.9672 13.7409C21.7927 14.2354 21.6901 14.2766 21.2281 14.1426C20.1086 13.8253 18.9526 13.6556 17.7894 13.6379C16.845 13.6379 16.6294 13.9366 16.6294 14.3178C16.6294 14.6989 16.7834 15.0182 18.1076 15.5023C21.2897 16.7178 23.2401 17.7581 23.2401 20.426C23.2401 23.2998 21.2589 24.7419 17.8099 24.7419C15.8993 24.8072 14.0053 24.3667 12.3181 23.4646C12.0512 23.2998 12.0102 23.1453 12.1744 22.7436L12.9546 20.838C13.1291 20.3848 13.2728 20.3848 13.6731 20.5393C14.9689 21.0253 16.3349 21.2967 17.7175 21.3427C18.9698 21.3427 19.1751 20.8071 19.1751 20.4569C19.1751 20.1067 19.0725 19.6843 17.6149 19.1384C14.8433 18.1084 12.7082 17.0783 12.7082 14.6577C12.7082 12.237 14.1966 10.3005 17.7278 10.3005Z" fill="white"/>
<path d="M43.472 21.806L42.815 24.103C42.7124 24.4017 42.6303 24.5459 42.1786 24.5459H39.2428C38.9862 24.5459 38.9246 24.3811 38.9862 24.1648L42.9074 11.8041C42.9337 11.6085 42.9987 11.42 43.0986 11.2499C43.1984 11.0798 43.3311 10.9314 43.4888 10.8134C43.6466 10.6953 43.8262 10.6101 44.0172 10.5627C44.2082 10.5153 44.4068 10.5066 44.6011 10.5372H46.1922C47.1263 10.5372 47.6088 10.599 47.9783 11.7835L51.9098 24.1442C51.9378 24.1851 51.9528 24.2335 51.953 24.2832C51.9531 24.3328 51.9384 24.3813 51.9108 24.4224C51.8831 24.4635 51.8437 24.4953 51.7978 24.5137C51.7518 24.532 51.7015 24.5361 51.6532 24.5253H48.6763C48.3479 24.5253 48.1323 24.5253 48.0502 24.1854L47.3932 21.7854L43.472 21.806ZM46.5515 18.8394L46.1922 17.284L45.566 14.4205H45.4018L44.7243 17.3664L44.3035 18.86L46.5515 18.8394Z" fill="white"/>
<path d="M79.7997 10.5166H76.7202C76.402 10.5166 76.1864 10.5166 76.1043 10.8565L74.5851 16.357L73.5586 20.2815H73.4046L72.3781 16.3261L70.8281 10.9595C70.7255 10.6608 70.6536 10.5166 70.1917 10.5166H67.2046C66.9377 10.5166 66.8864 10.6814 66.9377 10.8977L71.0437 23.2583C71.4132 24.2884 71.8136 24.5253 72.7374 24.5253H74.1745C75.0881 24.5253 75.55 24.5253 75.9606 23.2789L80.0666 10.9183C80.1055 10.8777 80.1294 10.825 80.1344 10.7689C80.1393 10.7128 80.1251 10.6567 80.094 10.6098C80.0628 10.563 80.0167 10.5282 79.9632 10.5112C79.9097 10.4943 79.852 10.4962 79.7997 10.5166Z" fill="white"/>
</svg>
