<svg width="20" height="20" viewBox="0 0 20 20" fill="none" xmlns="http://www.w3.org/2000/svg">
<path d="M9.99999 0.374709C11.9062 0.373551 13.77 0.937423 15.3555 1.995C16.941 3.05258 18.1771 4.55636 18.9074 6.31612C19.6377 8.07588 19.8294 10.0126 19.4582 11.8812C19.087 13.7499 18.1697 15.4665 16.8222 16.814C15.4747 18.1616 13.7576 19.0794 11.8881 19.4515C10.0185 19.8236 8.0806 19.6332 6.31937 18.9044C4.55814 18.1756 3.05273 16.9412 1.99357 15.3572C0.934409 13.7733 0.369076 11.911 0.369075 10.0059C0.372172 7.45348 1.38766 5.00644 3.19297 3.20109C4.99828 1.39574 7.44613 0.379356 9.99999 0.374709ZM9.99999 0.0117113C8.02218 0.0117113 6.08879 0.597857 4.4443 1.69603C2.79981 2.7942 1.51808 4.35507 0.761209 6.18126C0.00433329 8.00745 -0.1937 10.0169 0.192151 11.9556C0.578003 13.8943 1.53041 15.6751 2.92893 17.0728C4.32746 18.4705 6.10928 19.4223 8.04909 19.808C9.9889 20.1936 11.9996 19.9957 13.8268 19.2392C15.6541 18.4828 17.2159 17.2018 18.3147 15.5583C19.4135 13.9148 20 11.9825 20 10.0059C20.0023 8.6922 19.7453 7.391 19.2437 6.17675C18.7421 4.96251 18.0058 3.85907 17.0769 2.92964C16.148 2.0002 15.0448 1.26302 13.8304 0.760309C12.6161 0.257597 11.3144 -0.000770325 9.99999 1.72517e-06V0.0117113Z" fill="#FAA21F"/>
<path d="M6.62573 13.2845C6.66571 13.3303 6.70877 13.3734 6.75461 13.4133L11.7634 14.3735C12.002 14.2797 12.2314 14.164 12.4488 14.0281L11.9098 12.1663L6.62573 13.2845Z" fill="#F78F22"/>
<path d="M10.0003 14.7189C10.6028 14.7162 11.1992 14.599 11.7578 14.3735L6.74902 13.4133C7.62312 14.2523 8.78842 14.7203 10.0003 14.7189Z" fill="#F68922"/>
<path d="M12.9468 6.32905C12.2445 5.76869 11.3973 5.41944 10.5039 5.32202L12.2614 7.34193L12.9468 6.32905Z" fill="#FFC815"/>
<path d="M12.9471 6.32898L12.2852 7.34186L14.6987 10.3512C14.6987 10.24 14.6987 10.1229 14.6987 10.0058C14.7025 9.30069 14.547 8.60382 14.2437 7.96718C13.9404 7.33054 13.4972 6.77055 12.9471 6.32898Z" fill="#FCB316"/>
<path d="M12.4484 14.0515C12.9775 13.7293 13.4375 13.3055 13.8016 12.8045L11.9094 12.219L12.4484 14.0515Z" fill="#F79421"/>
<path d="M11.9095 12.1663L12.2845 7.34192L8.8457 9.80093L11.9095 12.1663Z" fill="#F8B119"/>
<path d="M8.84573 9.8009L6.50244 13.1498C6.54034 13.1975 6.58145 13.2425 6.62546 13.2845L11.8979 12.1662L8.84573 9.8009Z" fill="#F89823"/>
<path d="M11.9094 12.1663L13.8016 12.7517C14.3255 12.0435 14.6364 11.2006 14.6979 10.322L12.2843 7.31262L11.9094 12.1663Z" fill="#FEBC18"/>
<path d="M12.2843 7.34189L10.5268 5.32198C10.3522 5.29463 10.1762 5.27704 9.99959 5.26929C9.26443 5.27095 8.53997 5.44544 7.88477 5.77865L8.84551 9.77748L12.2843 7.34189Z" fill="#FEBC18"/>
<path d="M7.89094 5.80212C7.24145 6.12433 6.67563 6.59275 6.23799 7.17054C5.80035 7.74833 5.50282 8.41973 5.36881 9.13192C5.23481 9.84411 5.26798 10.5777 5.46573 11.2749C5.66347 11.9721 6.02038 12.6139 6.50839 13.1499L8.85168 9.80095L7.89094 5.80212Z" fill="#FAA21F"/>
</svg>
